<?xml version="1.0" encoding="UTF-8" standalone="yes"?>
<mxfile host="65bd71144e">
  <diagram id="BeJ36CkgAbLrFh_eJjcD" name="Seite-1">
    <mxGraphModel dx="2312" dy="823" grid="0" gridSize="10" guides="1" tooltips="1" connect="1" arrows="1" fold="1" page="0" pageScale="1" pageWidth="827" pageHeight="1169" math="0" shadow="0">
      <root>
        <mxCell id="0"/>
        <mxCell id="1" parent="0"/>
        <mxCell id="2" value="" style="rounded=0;whiteSpace=wrap;html=1;" vertex="1" parent="1">
          <mxGeometry x="1" y="1" width="320" height="80" as="geometry"/>
        </mxCell>
      </root>
    </mxGraphModel>
  </diagram>
</mxfile>